<mxfile modified="2023-08-06T19:54:00.468Z" host="app.diagrams.net" agent="Mozilla/5.0 (X11; Linux x86_64; rv:109.0) Gecko/20100101 Firefox/115.0" etag="wkIzhouD-XCg1NXmgnP_" version="21.6.6" type="github">
  <diagram id="f106602c-feb2-e66a-4537-3a34d633f6aa" name="Page-1">
    <mxGraphModel dx="989" dy="488" grid="1" gridSize="10" guides="1" tooltips="1" connect="1" arrows="1" fold="1" page="1" pageScale="1" pageWidth="2336" pageHeight="1654" background="none" math="0" shadow="0">
      <root>
        <mxCell id="0" />
        <mxCell id="1" parent="0" />
        <mxCell id="cJ9UY4EHp96_X8DKELfV-519" value="" style="group" vertex="1" connectable="0" parent="1">
          <mxGeometry x="220" y="100" width="160" height="40" as="geometry" />
        </mxCell>
        <mxCell id="cJ9UY4EHp96_X8DKELfV-516" value="" style="rounded=0;whiteSpace=wrap;html=1;" vertex="1" parent="cJ9UY4EHp96_X8DKELfV-519">
          <mxGeometry width="160" height="40" as="geometry" />
        </mxCell>
        <mxCell id="cJ9UY4EHp96_X8DKELfV-517" value="&lt;div&gt;ExpressJS&lt;/div&gt;" style="text;html=1;strokeColor=none;fillColor=none;align=center;verticalAlign=middle;whiteSpace=wrap;rounded=0;" vertex="1" parent="cJ9UY4EHp96_X8DKELfV-519">
          <mxGeometry x="50" y="5" width="60" height="30" as="geometry" />
        </mxCell>
        <mxCell id="cJ9UY4EHp96_X8DKELfV-528" value="" style="edgeStyle=orthogonalEdgeStyle;rounded=0;orthogonalLoop=1;jettySize=auto;html=1;exitX=1;exitY=0.5;exitDx=0;exitDy=0;" edge="1" parent="1" source="cJ9UY4EHp96_X8DKELfV-525" target="cJ9UY4EHp96_X8DKELfV-527">
          <mxGeometry relative="1" as="geometry">
            <mxPoint x="897" y="70" as="sourcePoint" />
          </mxGeometry>
        </mxCell>
        <mxCell id="cJ9UY4EHp96_X8DKELfV-544" value="SCAN 0 MATCH lobby_list:*" style="edgeLabel;html=1;align=center;verticalAlign=middle;resizable=0;points=[];" vertex="1" connectable="0" parent="cJ9UY4EHp96_X8DKELfV-528">
          <mxGeometry x="-0.0599" y="1" relative="1" as="geometry">
            <mxPoint as="offset" />
          </mxGeometry>
        </mxCell>
        <mxCell id="cJ9UY4EHp96_X8DKELfV-525" value="Redis" style="rounded=0;whiteSpace=wrap;html=1;" vertex="1" parent="1">
          <mxGeometry x="767" y="50" width="120" height="40" as="geometry" />
        </mxCell>
        <mxCell id="cJ9UY4EHp96_X8DKELfV-541" value="" style="edgeStyle=orthogonalEdgeStyle;rounded=0;orthogonalLoop=1;jettySize=auto;html=1;" edge="1" parent="1" source="cJ9UY4EHp96_X8DKELfV-527" target="cJ9UY4EHp96_X8DKELfV-540">
          <mxGeometry relative="1" as="geometry" />
        </mxCell>
        <mxCell id="cJ9UY4EHp96_X8DKELfV-542" value="&lt;div&gt;for each [key] =&amp;gt;&lt;/div&gt;&lt;div&gt;hGetAll key&lt;br&gt;&lt;/div&gt;" style="edgeLabel;html=1;align=center;verticalAlign=middle;resizable=0;points=[];" vertex="1" connectable="0" parent="cJ9UY4EHp96_X8DKELfV-541">
          <mxGeometry x="-0.37" y="-1" relative="1" as="geometry">
            <mxPoint x="26" y="-1" as="offset" />
          </mxGeometry>
        </mxCell>
        <mxCell id="cJ9UY4EHp96_X8DKELfV-527" value="keys_list" style="whiteSpace=wrap;html=1;rounded=0;" vertex="1" parent="1">
          <mxGeometry x="1067" y="50" width="120" height="40" as="geometry" />
        </mxCell>
        <mxCell id="cJ9UY4EHp96_X8DKELfV-576" value="" style="edgeStyle=orthogonalEdgeStyle;rounded=0;orthogonalLoop=1;jettySize=auto;html=1;" edge="1" parent="1" source="cJ9UY4EHp96_X8DKELfV-540" target="cJ9UY4EHp96_X8DKELfV-575">
          <mxGeometry relative="1" as="geometry" />
        </mxCell>
        <mxCell id="cJ9UY4EHp96_X8DKELfV-540" value="Array&amp;lt;Lobby&amp;gt;" style="whiteSpace=wrap;html=1;rounded=0;" vertex="1" parent="1">
          <mxGeometry x="1327" y="50" width="120" height="40" as="geometry" />
        </mxCell>
        <mxCell id="cJ9UY4EHp96_X8DKELfV-570" style="edgeStyle=orthogonalEdgeStyle;rounded=0;orthogonalLoop=1;jettySize=auto;html=1;exitX=1;exitY=0.25;exitDx=0;exitDy=0;entryX=0;entryY=0.5;entryDx=0;entryDy=0;" edge="1" parent="1" source="cJ9UY4EHp96_X8DKELfV-561" target="cJ9UY4EHp96_X8DKELfV-525">
          <mxGeometry relative="1" as="geometry" />
        </mxCell>
        <mxCell id="cJ9UY4EHp96_X8DKELfV-571" value="get_lobby_list" style="edgeLabel;html=1;align=center;verticalAlign=middle;resizable=0;points=[];" vertex="1" connectable="0" parent="cJ9UY4EHp96_X8DKELfV-570">
          <mxGeometry x="-0.3266" y="-1" relative="1" as="geometry">
            <mxPoint as="offset" />
          </mxGeometry>
        </mxCell>
        <mxCell id="cJ9UY4EHp96_X8DKELfV-586" value="" style="edgeStyle=orthogonalEdgeStyle;rounded=0;orthogonalLoop=1;jettySize=auto;html=1;" edge="1" parent="1" source="cJ9UY4EHp96_X8DKELfV-561" target="cJ9UY4EHp96_X8DKELfV-585">
          <mxGeometry relative="1" as="geometry" />
        </mxCell>
        <mxCell id="cJ9UY4EHp96_X8DKELfV-587" value="&lt;div&gt;create_new_lobby&lt;/div&gt;" style="edgeLabel;html=1;align=center;verticalAlign=middle;resizable=0;points=[];" vertex="1" connectable="0" parent="cJ9UY4EHp96_X8DKELfV-586">
          <mxGeometry x="-0.3231" y="-1" relative="1" as="geometry">
            <mxPoint x="19" y="-1" as="offset" />
          </mxGeometry>
        </mxCell>
        <mxCell id="cJ9UY4EHp96_X8DKELfV-561" value="websocket_connection" style="whiteSpace=wrap;html=1;" vertex="1" parent="1">
          <mxGeometry x="487" y="40" width="140" height="170" as="geometry" />
        </mxCell>
        <mxCell id="cJ9UY4EHp96_X8DKELfV-562" style="edgeStyle=orthogonalEdgeStyle;rounded=0;orthogonalLoop=1;jettySize=auto;html=1;exitX=1;exitY=0.5;exitDx=0;exitDy=0;entryX=0;entryY=0.5;entryDx=0;entryDy=0;" edge="1" parent="1" source="cJ9UY4EHp96_X8DKELfV-516" target="cJ9UY4EHp96_X8DKELfV-561">
          <mxGeometry relative="1" as="geometry" />
        </mxCell>
        <mxCell id="cJ9UY4EHp96_X8DKELfV-563" value="&lt;div&gt;ws:/lobby&lt;/div&gt;&lt;div&gt;&lt;br&gt;&lt;/div&gt;" style="edgeLabel;html=1;align=center;verticalAlign=middle;resizable=0;points=[];" vertex="1" connectable="0" parent="cJ9UY4EHp96_X8DKELfV-562">
          <mxGeometry x="0.2026" relative="1" as="geometry">
            <mxPoint x="-12" as="offset" />
          </mxGeometry>
        </mxCell>
        <mxCell id="cJ9UY4EHp96_X8DKELfV-567" style="edgeStyle=orthogonalEdgeStyle;rounded=0;orthogonalLoop=1;jettySize=auto;html=1;entryX=0;entryY=0.5;entryDx=0;entryDy=0;" edge="1" parent="1" source="cJ9UY4EHp96_X8DKELfV-566" target="cJ9UY4EHp96_X8DKELfV-516">
          <mxGeometry relative="1" as="geometry" />
        </mxCell>
        <mxCell id="cJ9UY4EHp96_X8DKELfV-568" value="&lt;div&gt;ws:/lobby&lt;/div&gt;" style="edgeLabel;html=1;align=center;verticalAlign=middle;resizable=0;points=[];" vertex="1" connectable="0" parent="cJ9UY4EHp96_X8DKELfV-567">
          <mxGeometry x="-0.357" y="1" relative="1" as="geometry">
            <mxPoint as="offset" />
          </mxGeometry>
        </mxCell>
        <mxCell id="cJ9UY4EHp96_X8DKELfV-566" value="&lt;div&gt;client&lt;/div&gt;" style="whiteSpace=wrap;html=1;" vertex="1" parent="1">
          <mxGeometry x="10" y="100" width="120" height="40" as="geometry" />
        </mxCell>
        <mxCell id="cJ9UY4EHp96_X8DKELfV-575" value="Response&amp;lt;Array&amp;lt;Lobby&amp;gt;&amp;gt;" style="whiteSpace=wrap;html=1;rounded=0;" vertex="1" parent="1">
          <mxGeometry x="1527" y="50" width="160" height="40" as="geometry" />
        </mxCell>
        <mxCell id="cJ9UY4EHp96_X8DKELfV-585" value="websocket_connection" style="whiteSpace=wrap;html=1;" vertex="1" parent="1">
          <mxGeometry x="757" y="120" width="140" height="40" as="geometry" />
        </mxCell>
      </root>
    </mxGraphModel>
  </diagram>
</mxfile>
